<svg width="16" height="16" viewBox="0 0 16 16" fill="none" xmlns="http://www.w3.org/2000/svg">
<path d="M2.93099 5.157L7.61599 9.768C7.71821 9.86913 7.8562 9.92585 7.99999 9.92585C8.14378 9.92585 8.28177 9.86913 8.38399 9.768L13.069 5.158C13.1718 5.05692 13.3103 5.00029 13.4545 5.00029C13.5987 5.00029 13.7371 5.05692 13.84 5.158C13.8906 5.20738 13.9309 5.26639 13.9584 5.33157C13.9859 5.39675 14 5.46677 14 5.5375C14 5.60823 13.9859 5.67825 13.9584 5.74343C13.9309 5.80861 13.8906 5.86762 13.84 5.917L9.15599 10.527C8.84747 10.8299 8.43237 10.9996 7.99999 10.9996C7.56761 10.9996 7.15251 10.8299 6.84399 10.527L2.15999 5.917C2.10919 5.86761 2.06881 5.80853 2.04123 5.74326C2.01366 5.67799 1.99945 5.60785 1.99945 5.537C1.99945 5.46614 2.01366 5.39601 2.04123 5.33074C2.06881 5.26547 2.10919 5.20639 2.15999 5.157C2.26285 5.05592 2.40129 4.99929 2.54549 4.99929C2.6897 4.99929 2.82814 5.05592 2.93099 5.157Z" fill="white"/>
</svg>
