<svg width="48" height="48" viewBox="0 0 48 48" fill="none" xmlns="http://www.w3.org/2000/svg">
<path d="M41.9531 40.2422C43.4844 40.9922 44.75 42.0469 45.75 43.4062C46.75 44.7656 47.3828 46.2969 47.6484 48H45.0703C44.8984 47.1094 44.5781 46.2812 44.1094 45.5156C43.6406 44.75 43.0703 44.0938 42.3984 43.5469C41.7266 43 40.9688 42.5625 40.125 42.2344C39.2812 41.9062 38.4062 41.75 37.5 41.7656C36.5781 41.7656 35.7031 41.9219 34.875 42.2344C34.0469 42.5469 33.2891 42.9766 32.6016 43.5234C31.9141 44.0703 31.3438 44.7344 30.8906 45.5156C30.4375 46.2969 30.1172 47.125 29.9297 48H27.3516C27.6016 46.3125 28.2266 44.7891 29.2266 43.4297C30.2266 42.0703 31.5 41.0078 33.0469 40.2422C32.1562 39.5391 31.4688 38.6875 30.9844 37.6875C30.5 36.6875 30.25 35.625 30.2344 34.5C30.2344 33.7969 30.3281 33.1172 30.5156 32.4609C30.7031 31.8047 30.9844 31.1875 31.3594 30.6094C31.7344 30.0312 32.1797 29.5156 32.6953 29.0625C33.2109 28.6094 33.7891 28.2266 34.4297 27.9141C34.0078 27.3047 33.5234 26.7656 32.9766 26.2969C32.4297 25.8281 31.8359 25.4141 31.1953 25.0547C30.5547 24.6953 29.8828 24.4375 29.1797 24.2812C28.4766 24.125 27.75 24.0312 27 24C25.75 24 24.5547 24.2422 23.4141 24.7266C22.2734 25.2109 21.2812 25.9219 20.4375 26.8594C20.8125 27.875 21 28.9219 21 30C21 31.4375 20.6797 32.7891 20.0391 34.0547C19.3984 35.3203 18.5 36.3828 17.3438 37.2422C18.3594 37.7578 19.2734 38.3906 20.0859 39.1406C20.8984 39.8906 21.6016 40.7344 22.1953 41.6719C22.7891 42.6094 23.2344 43.6094 23.5312 44.6719C23.8281 45.7344 23.9844 46.8438 24 48H21C21 46.7656 20.7656 45.6016 20.2969 44.5078C19.8281 43.4141 19.1875 42.4609 18.375 41.6484C17.5625 40.8359 16.6016 40.1875 15.4922 39.7031C14.3828 39.2188 13.2188 38.9844 12 39C10.75 39 9.58594 39.2344 8.50781 39.7031C7.42969 40.1719 6.47656 40.8125 5.64844 41.625C4.82031 42.4375 4.17188 43.3984 3.70312 44.5078C3.23438 45.6172 3 46.7812 3 48H0C0 46.8594 0.15625 45.7578 0.46875 44.6953C0.78125 43.6328 1.22656 42.6328 1.80469 41.6953C2.38281 40.7578 3.07812 39.9141 3.89062 39.1641C4.70312 38.4141 5.625 37.7734 6.65625 37.2422C5.5 36.3828 4.60156 35.3203 3.96094 34.0547C3.32031 32.7891 3 31.4375 3 30C3 28.7656 3.23438 27.6016 3.70312 26.5078C4.17188 25.4141 4.8125 24.4609 5.625 23.6484C6.4375 22.8359 7.39062 22.1875 8.48438 21.7031C9.57812 21.2188 10.75 20.9844 12 21C13.3281 21 14.5859 21.2812 15.7734 21.8438C16.9609 22.4062 17.9922 23.1875 18.8672 24.1875C19.2734 23.7969 19.7109 23.4453 20.1797 23.1328C20.6484 22.8203 21.1406 22.5234 21.6562 22.2422C20.5 21.3828 19.6016 20.3203 18.9609 19.0547C18.3203 17.7891 18 16.4375 18 15C18 13.7656 18.2344 12.6016 18.7031 11.5078C19.1719 10.4141 19.8125 9.46094 20.625 8.64844C21.4375 7.83594 22.3906 7.1875 23.4844 6.70312C24.5781 6.21875 25.75 5.98438 27 6C28.2344 6 29.3984 6.23438 30.4922 6.70312C31.5859 7.17188 32.5391 7.8125 33.3516 8.625C34.1641 9.4375 34.8125 10.3984 35.2969 11.5078C35.7812 12.6172 36.0156 13.7812 36 15C36 16.4375 35.6797 17.7891 35.0391 19.0547C34.3984 20.3203 33.5 21.3828 32.3438 22.2422C33.4375 22.8203 34.4219 23.5234 35.2969 24.3516C36.1719 25.1797 36.9141 26.1406 37.5234 27.2344C38.5234 27.2344 39.4609 27.4219 40.3359 27.7969C41.2109 28.1719 41.9844 28.6953 42.6562 29.3672C43.3281 30.0391 43.8438 30.8047 44.2031 31.6641C44.5625 32.5234 44.75 33.4688 44.7656 34.5C44.7656 35.625 44.5234 36.6875 44.0391 37.6875C43.5547 38.6875 42.8594 39.5391 41.9531 40.2422ZM12 36C12.8281 36 13.6016 35.8438 14.3203 35.5312C15.0391 35.2188 15.6797 34.7891 16.2422 34.2422C16.8047 33.6953 17.2344 33.0625 17.5312 32.3438C17.8281 31.625 17.9844 30.8438 18 30C18 29.1719 17.8438 28.3984 17.5312 27.6797C17.2188 26.9609 16.7891 26.3203 16.2422 25.7578C15.6953 25.1953 15.0625 24.7656 14.3438 24.4688C13.625 24.1719 12.8438 24.0156 12 24C11.1719 24 10.3984 24.1562 9.67969 24.4688C8.96094 24.7812 8.32031 25.2109 7.75781 25.7578C7.19531 26.3047 6.76562 26.9375 6.46875 27.6562C6.17188 28.375 6.01562 29.1562 6 30C6 30.8281 6.15625 31.6016 6.46875 32.3203C6.78125 33.0391 7.21094 33.6797 7.75781 34.2422C8.30469 34.8047 8.9375 35.2344 9.65625 35.5312C10.375 35.8281 11.1562 35.9844 12 36ZM21 15C21 15.8281 21.1562 16.6016 21.4688 17.3203C21.7812 18.0391 22.2109 18.6797 22.7578 19.2422C23.3047 19.8047 23.9375 20.2344 24.6562 20.5312C25.375 20.8281 26.1562 20.9844 27 21C27.8281 21 28.6016 20.8438 29.3203 20.5312C30.0391 20.2188 30.6797 19.7891 31.2422 19.2422C31.8047 18.6953 32.2344 18.0625 32.5312 17.3438C32.8281 16.625 32.9844 15.8438 33 15C33 14.1719 32.8438 13.3984 32.5312 12.6797C32.2188 11.9609 31.7891 11.3203 31.2422 10.7578C30.6953 10.1953 30.0625 9.76562 29.3438 9.46875C28.625 9.17188 27.8438 9.01562 27 9C26.1719 9 25.3984 9.15625 24.6797 9.46875C23.9609 9.78125 23.3203 10.2109 22.7578 10.7578C22.1953 11.3047 21.7656 11.9375 21.4688 12.6562C21.1719 13.375 21.0156 14.1562 21 15ZM37.5 29.7656C36.8438 29.7656 36.2344 29.8906 35.6719 30.1406C35.1094 30.3906 34.6094 30.7266 34.1719 31.1484C33.7344 31.5703 33.3906 32.0703 33.1406 32.6484C32.8906 33.2266 32.7656 33.8438 32.7656 34.5C32.7656 35.1562 32.8906 35.7656 33.1406 36.3281C33.3906 36.8906 33.7266 37.3906 34.1484 37.8281C34.5703 38.2656 35.0703 38.6094 35.6484 38.8594C36.2266 39.1094 36.8438 39.2344 37.5 39.2344C38.1562 39.2344 38.7656 39.1094 39.3281 38.8594C39.8906 38.6094 40.3906 38.2734 40.8281 37.8516C41.2656 37.4297 41.6094 36.9297 41.8594 36.3516C42.1094 35.7734 42.2344 35.1562 42.2344 34.5C42.2344 33.8438 42.1094 33.2344 41.8594 32.6719C41.6094 32.1094 41.2734 31.6094 40.8516 31.1719C40.4297 30.7344 39.9297 30.3906 39.3516 30.1406C38.7734 29.8906 38.1562 29.7656 37.5 29.7656Z" fill="black"/>
</svg>
