<svg width="32" height="32" viewBox="0 0 32 32" fill="none" xmlns="http://www.w3.org/2000/svg">
<path d="M21 8.016C21.0016 7.35819 20.8734 6.70653 20.6229 6.09829C20.3724 5.49005 20.0044 4.93718 19.54 4.47129C19.0756 4.00541 18.5239 3.63566 17.9165 3.3832C17.3091 3.13074 16.6578 3.00052 16 3C13.24 3 11 5.248 11 8.016V8H3V30H29V8H21V8.016Z" fill="#E3D1C1"/>
<path d="M11 8V30H10V8H11ZM22 8H21V30H22V8Z" fill="#52463B"/>
<path d="M20 20H12V28H20V20Z" fill="#FFFAF8"/>
<path d="M6 21.306V23.689C6 23.859 5.86 24 5.68 24H4.31C4.14 24 4 23.86 4 23.69V21.306C4 21.136 4.14 20.996 4.31 20.996H5.69C5.86 20.996 6 21.136 6 21.306ZM9 21.306V23.689C9 23.859 8.86 24 8.68 24H7.31C7.14 24 7 23.86 7 23.69V21.306C7 21.136 7.14 20.996 7.31 20.996H8.69C8.86 20.996 9 21.136 9 21.306ZM6 16.298V18.682C6 18.852 5.86 18.992 5.68 18.992H4.31C4.14 18.992 4 18.852 4 18.682V16.298C4 16.128 4.14 15.988 4.31 15.988H5.69C5.86 15.988 6 16.128 6 16.298ZM9 16.298V18.682C9 18.852 8.86 18.992 8.68 18.992H7.31C7.14 18.992 7 18.852 7 18.682V16.298C7 16.128 7.14 15.988 7.31 15.988H8.69C8.86 15.988 9 16.128 9 16.298ZM6 11.31V13.694C6 13.864 5.86 14.004 5.68 14.004H4.31C4.14 14.004 4 13.864 4 13.694V11.31C4 11.14 4.14 11 4.31 11H5.69C5.86 11 6 11.14 6 11.31ZM9 11.31V13.694C9 13.864 8.86 14.004 8.68 14.004H7.31C7.14 14.004 7 13.864 7 13.694V11.31C7 11.14 7.14 11 7.31 11H8.69C8.86 11 9 11.14 9 11.31ZM24.994 21.306V23.689C24.994 23.859 24.854 24 24.684 24H23.31C23.2692 24.0001 23.2288 23.9922 23.1911 23.9767C23.1533 23.9612 23.119 23.9384 23.0902 23.9096C23.0613 23.8808 23.0383 23.8465 23.0227 23.8089C23.0071 23.7712 22.999 23.7308 22.999 23.69V21.306C22.999 21.136 23.139 20.996 23.309 20.996H24.682C24.852 20.996 24.994 21.136 24.994 21.306ZM28 21.306V23.689C28 23.859 27.86 24 27.69 24H26.317C26.2762 24.0001 26.2358 23.9922 26.1981 23.9767C26.1603 23.9612 26.126 23.9384 26.0972 23.9096C26.0683 23.8808 26.0453 23.8465 26.0297 23.8089C26.0141 23.7712 26.006 23.7308 26.006 23.69V21.306C26.006 21.136 26.146 20.996 26.316 20.996H27.689C27.859 20.996 28 21.136 28 21.306ZM24.994 16.298V18.682C24.994 18.852 24.854 18.992 24.684 18.992H23.31C23.2692 18.9921 23.2288 18.9842 23.1911 18.9687C23.1533 18.9532 23.119 18.9304 23.0902 18.9016C23.0613 18.8728 23.0383 18.8385 23.0227 18.8009C23.0071 18.7632 22.999 18.7228 22.999 18.682V16.298C22.999 16.128 23.139 15.988 23.309 15.988H24.682C24.852 15.988 24.994 16.128 24.994 16.298ZM28 16.298V18.682C28 18.852 27.86 18.992 27.69 18.992H26.317C26.2762 18.9921 26.2358 18.9842 26.1981 18.9687C26.1603 18.9532 26.126 18.9304 26.0972 18.9016C26.0683 18.8728 26.0453 18.8385 26.0297 18.8009C26.0141 18.7632 26.006 18.7228 26.006 18.682V16.298C26.006 16.128 26.146 15.988 26.316 15.988H27.689C27.859 15.988 28 16.128 28 16.298ZM24.994 11.31V13.694C24.994 13.864 24.854 14.004 24.684 14.004H23.31C23.2692 14.0041 23.2288 13.9962 23.1911 13.9807C23.1533 13.9652 23.119 13.9424 23.0902 13.9136C23.0613 13.8848 23.0383 13.8505 23.0227 13.8129C23.0071 13.7752 22.999 13.7348 22.999 13.694V11.31C22.999 11.14 23.139 11 23.309 11H24.682C24.852 11 24.994 11.14 24.994 11.31ZM28 11.31V13.694C28 13.864 27.86 14.004 27.69 14.004H26.317C26.2762 14.0041 26.2358 13.9962 26.1981 13.9807C26.1603 13.9652 26.126 13.9424 26.0972 13.9136C26.0683 13.8848 26.0453 13.8505 26.0297 13.8129C26.0141 13.7752 26.006 13.7348 26.006 13.694V11.31C26.006 11.14 26.146 11 26.316 11H27.689C27.859 11 28 11.14 28 11.31ZM15 15.69V13.31C15 13.14 14.86 13 14.688 13H13.312C13.2297 13.0003 13.1508 13.0329 13.0924 13.091C13.034 13.149 13.0008 13.2277 13 13.31V15.69C13 15.86 13.14 16 13.312 16H14.688C14.859 16 15 15.86 15 15.69ZM19 13.31V15.69C19 15.86 18.86 16 18.688 16H17.312C17.2711 16.0003 17.2306 15.9924 17.1928 15.977C17.1549 15.9615 17.1205 15.9387 17.0915 15.9099C17.0625 15.8811 17.0395 15.8468 17.0238 15.8091C17.0081 15.7714 17 15.7309 17 15.69V13.31C17 13.14 17.14 13 17.312 13H18.688C18.859 13 19 13.14 19 13.31ZM15.137 27H13.363C13.3148 26.9997 13.2672 26.9899 13.2228 26.9712C13.1784 26.9524 13.1382 26.925 13.1044 26.8906C13.0707 26.8562 13.0441 26.8155 13.0261 26.7708C13.0082 26.726 12.9993 26.6782 13 26.63V20.37C13 20.17 13.157 20 13.363 20H15.137C15.333 20 15.5 20.16 15.5 20.37V26.63C15.5 26.84 15.333 27 15.137 27ZM16.863 27H18.637C18.833 27 19 26.84 19 26.63V20.37C19 20.16 18.833 20 18.637 20H16.863C16.8148 20.0003 16.7672 20.0101 16.7228 20.0288C16.6784 20.0476 16.6382 20.075 16.6044 20.1094C16.5707 20.1438 16.5441 20.1845 16.5261 20.2292C16.5082 20.274 16.4993 20.3218 16.5 20.37V26.63C16.5 26.84 16.667 27 16.863 27Z" fill="#FFFAF8"/>
<path d="M21.1497 5.02H27.8397C28.7607 5.02 29.5377 5.681 29.8497 6.609C29.9897 7.027 30.0447 7.439 29.6947 7.773C29.5286 7.93056 29.3087 8.01889 29.0797 8.02H20.9597L20.9537 8.002C20.9451 7.98333 20.9404 7.96267 20.9397 7.94C20.9397 7.63 20.9097 7.32 20.8497 7.02C20.7097 6.28 20.3897 5.61 19.9597 5.02C19.503 4.39535 18.9056 3.88699 18.2159 3.53607C17.5262 3.18514 16.7636 3.0015 15.9897 3C14.3597 3 12.9197 3.8 12.0197 5.02C11.5897 5.61 11.2697 6.28 11.1297 7.02C11.0697 7.32 11.0397 7.63 11.0397 7.94C11.0392 7.95388 11.0358 7.96751 11.0297 7.98C11.0237 7.992 11.0204 8.00533 11.0197 8.02H2.89972C2.76979 8.02015 2.64141 7.99184 2.52359 7.93708C2.40577 7.88231 2.30137 7.80242 2.21772 7.703C1.95772 7.397 1.99072 7.061 2.09472 6.699C2.37272 5.724 3.16872 5.02 4.11972 5.02H10.8097C11.3277 4.10458 12.079 3.34282 12.9872 2.81231C13.8954 2.28181 14.9279 2.00152 15.9797 2C17.0315 2.00152 18.0641 2.28181 18.9723 2.81231C19.8805 3.34282 20.6318 4.10458 21.1497 5.02ZM17.5107 6H17.4907C17.3611 6.00053 17.237 6.05239 17.1455 6.14422C17.0541 6.23606 17.0027 6.36039 17.0027 6.49V8H14.9977V6.49C14.9977 6.36004 14.9461 6.23541 14.8542 6.14352C14.7623 6.05162 14.6377 6 14.5077 6H14.4877C14.3581 6.00053 14.234 6.05239 14.1425 6.14422C14.0511 6.23606 13.9997 6.36039 13.9997 6.49V10.51C13.9997 10.78 14.2197 11 14.4887 11H14.5087C14.6385 10.9997 14.7629 10.948 14.8546 10.8561C14.9462 10.7643 14.9977 10.6398 14.9977 10.51V9.01H17.0027V10.51C17.0027 10.78 17.2217 11 17.4907 11H17.5107C17.6405 10.9997 17.7649 10.948 17.8566 10.8561C17.9482 10.7643 17.9997 10.6398 17.9997 10.51V6.49C17.9997 6.36022 17.9482 6.23573 17.8566 6.14387C17.7649 6.05201 17.6405 6.00026 17.5107 6ZM21.9897 30H9.99972V29.62C9.99972 29.28 10.2797 29 10.6207 29H10.9997V28.566C10.9997 28.253 11.2497 28 11.5597 28H20.4397C20.7497 28 20.9997 28.253 20.9997 28.566V29H21.3787C21.7187 29 21.9997 29.28 21.9997 29.62V30H21.9897ZM20.4597 20.36C20.4557 20.3547 20.4541 20.348 20.4547 20.34C20.4554 20.332 20.4537 20.3253 20.4497 20.32C19.993 19.5491 19.3434 18.9104 18.5649 18.4668C17.7864 18.0231 16.9058 17.7899 16.0097 17.79C15.1137 17.7899 14.2331 18.0231 13.4545 18.4668C12.676 18.9104 12.0264 19.5491 11.5697 20.32V20.329C11.5691 20.331 11.5657 20.3347 11.5597 20.34C11.5297 20.4 11.4997 20.47 11.4997 20.55C11.4997 20.8 11.7017 21 11.9537 21H20.0457C20.1051 21.0005 20.1641 20.9893 20.2192 20.9669C20.2742 20.9445 20.3243 20.9115 20.3665 20.8696C20.4087 20.8278 20.4422 20.778 20.4651 20.7231C20.488 20.6683 20.4997 20.6094 20.4997 20.55C20.5022 20.4843 20.4885 20.4191 20.4597 20.36Z" fill="#333333"/>
</svg>
