<svg width="96" height="30" viewBox="0 0 96 30" fill="none" xmlns="http://www.w3.org/2000/svg">
<path d="M9.88 17.76C9.88 18.4533 9.69333 19.0533 9.32 19.56C8.96 20.0667 8.43333 20.46 7.74 20.74C7.06 21.02 6.23333 21.16 5.26 21.16C4.38 21.16 3.52 21.04 2.68 20.8C1.85333 20.5467 1.20667 20.2133 0.74 19.8L1.5 18.28C1.95333 18.64 2.52 18.94 3.2 19.18C3.88 19.4067 4.59333 19.52 5.34 19.52C6.3 19.52 6.97333 19.3667 7.36 19.06C7.74667 18.74 7.94 18.3667 7.94 17.94C7.94 17.5667 7.81333 17.2733 7.56 17.06C7.32 16.8333 6.99333 16.66 6.58 16.54C6.16667 16.4067 5.71333 16.2867 5.22 16.18C4.74 16.0733 4.25333 15.9533 3.76 15.82C3.28 15.6867 2.83333 15.5067 2.42 15.28C2.02 15.0533 1.69333 14.7467 1.44 14.36C1.18667 13.96 1.06 13.46 1.06 12.86C1.06 12.18 1.24667 11.5867 1.62 11.08C1.99333 10.5733 2.52 10.18 3.2 9.9C3.88 9.62 4.69333 9.48 5.64 9.48C6.33333 9.48 7.02 9.56 7.7 9.72C8.38 9.86667 8.96667 10.1133 9.46 10.46L8.76 12.02C8.28 11.6867 7.76 11.4533 7.2 11.32C6.65333 11.1867 6.11333 11.12 5.58 11.12C4.67333 11.12 4.01333 11.28 3.6 11.6C3.2 11.9067 3 12.2867 3 12.74C3 13.1133 3.12667 13.4133 3.38 13.64C3.63333 13.8533 3.96 14.0267 4.36 14.16C4.77333 14.28 5.22667 14.3933 5.72 14.5C6.21333 14.6067 6.7 14.7267 7.18 14.86C7.66 14.9933 8.10667 15.1733 8.52 15.4C8.93333 15.6267 9.26 15.9333 9.5 16.32C9.75333 16.6933 9.88 17.1733 9.88 17.76ZM12.565 21V9.64H14.505V14.44H20.725V9.64H22.665V21H20.725V16.04H14.505V21H12.565ZM29.7094 27.66C28.0694 27.66 26.7994 27.27 25.8994 26.49C25.0194 25.73 24.5794 24.75 24.5794 23.55C24.5794 22.37 24.9994 21.11 25.8394 19.77C26.6994 18.43 27.9894 17.15 29.7094 15.93C30.6494 15.27 31.5694 14.76 32.4694 14.4C33.3894 14.04 34.2294 13.83 34.9894 13.77C35.2494 13.77 35.4294 13.81 35.5294 13.89C35.5494 13.91 35.5694 13.95 35.5894 14.01C35.6094 14.07 35.5994 14.13 35.5594 14.19C35.5194 14.23 35.4694 14.26 35.4094 14.28C35.3694 14.28 35.3194 14.29 35.2594 14.31C34.5194 14.39 33.7394 14.64 32.9194 15.06C32.0994 15.46 31.2794 15.96 30.4594 16.56C28.9194 17.7 27.7994 18.81 27.0994 19.89C26.4194 20.95 26.0794 21.9 26.0794 22.74C26.0794 23.68 26.4994 24.46 27.3394 25.08C28.1994 25.7 29.4394 26.01 31.0594 26.01C33.0794 26.01 35.1594 25.65 37.2994 24.93C39.4394 24.21 41.6094 23.22 43.8094 21.96C46.0094 20.72 48.1894 19.32 50.3494 17.76C49.6094 17.62 48.8494 17.46 48.0694 17.28C47.2894 17.08 46.6694 16.84 46.2094 16.56C45.9494 16.4 45.7294 16.22 45.5494 16.02C45.3694 15.82 45.2794 15.61 45.2794 15.39C45.2794 15.23 45.3394 15.06 45.4594 14.88C45.6194 14.7 45.8194 14.57 46.0594 14.49C46.3194 14.41 46.5894 14.37 46.8694 14.37C47.3894 14.37 47.9694 14.46 48.6094 14.64C49.2694 14.8 49.9294 15.02 50.5894 15.3C51.2694 15.58 51.8894 15.87 52.4494 16.17C53.9894 14.97 55.4894 13.72 56.9494 12.42C58.4294 11.12 59.8694 9.82 61.2694 8.52C61.4894 8.06 61.7194 7.61 61.9594 7.17C62.2194 6.73 62.4794 6.3 62.7394 5.88C62.9594 5.54 63.2394 5.09 63.5794 4.53C63.9194 3.95 64.2994 3.39 64.7194 2.85C65.1394 2.29 65.5994 1.8 66.0994 1.38C66.6194 0.939998 67.1494 0.689999 67.6894 0.629999C68.0494 0.589999 68.3094 0.679999 68.4694 0.899999C68.6494 1.1 68.7394 1.33 68.7394 1.59C68.7394 2.15 68.5794 2.66 68.2594 3.12C67.9394 3.56 67.5794 3.98 67.1794 4.38C66.0194 5.52 64.7594 6.69 63.3994 7.89C62.4794 9.45 61.6194 11.07 60.8194 12.75C60.0194 14.41 59.3894 15.92 58.9294 17.28C60.1694 17.14 61.1894 16.9 61.9894 16.56C62.8094 16.2 63.1894 15.68 63.1294 15C63.1294 14.7 63.2394 14.55 63.4594 14.55C63.5994 14.55 63.7194 14.61 63.8194 14.73C63.9194 14.85 63.9694 15 63.9694 15.18C63.9694 15.76 63.6994 16.24 63.1594 16.62C62.6394 17 61.9694 17.3 61.1494 17.52C60.3494 17.74 59.5294 17.91 58.6894 18.03C58.5694 18.45 58.4594 18.85 58.3594 19.23C58.2594 19.61 58.1894 19.97 58.1494 20.31C58.1494 20.43 58.1494 20.56 58.1494 20.7C58.1694 20.82 58.1894 20.94 58.2094 21.06C58.2494 21.18 58.2794 21.28 58.2994 21.36C58.3194 21.44 58.3294 21.5 58.3294 21.54C58.4094 21.88 58.2894 22.18 57.9694 22.44C57.6694 22.7 57.3594 22.83 57.0394 22.83C56.6994 22.83 56.4894 22.68 56.4094 22.38C56.3894 22.32 56.3794 22.26 56.3794 22.2C56.3794 22.14 56.3694 22.09 56.3494 22.05C56.2294 21.77 56.0394 21.42 55.7794 21C55.5194 20.6 55.2394 20.2 54.9394 19.8C54.6394 19.4 54.3694 19.06 54.1294 18.78C53.8894 18.48 53.7294 18.32 53.6494 18.3C53.6094 18.28 53.4594 18.25 53.1994 18.21C52.9394 18.15 52.6294 18.1 52.2694 18.06C52.1294 18.02 51.9794 17.99 51.8194 17.97C51.6594 17.95 51.4994 17.93 51.3394 17.91C49.4994 19.25 47.6394 20.51 45.7594 21.69C43.8794 22.87 42.0094 23.9 40.1494 24.78C38.3094 25.68 36.5094 26.38 34.7494 26.88C32.9894 27.4 31.3094 27.66 29.7094 27.66ZM65.2294 5.1C65.5094 4.82 65.7894 4.54 66.0694 4.26C66.3694 3.98 66.6494 3.7 66.9094 3.42C67.0694 3.26 67.2594 3.07 67.4794 2.85C67.6994 2.63 67.8094 2.45 67.8094 2.31C67.8094 2.23 67.7794 2.19 67.7194 2.19C67.5994 2.19 67.4594 2.29 67.2994 2.49C66.9794 2.85 66.6394 3.25 66.2794 3.69C65.9394 4.13 65.5894 4.6 65.2294 5.1ZM55.9594 17.4C56.1594 17.4 56.3594 17.4 56.5594 17.4C56.7794 17.4 56.9994 17.39 57.2194 17.37C57.5394 16.47 57.9394 15.46 58.4194 14.34C58.9194 13.22 59.4494 12.08 60.0094 10.92C58.9294 11.86 57.8094 12.81 56.6494 13.77C55.5094 14.71 54.3394 15.64 53.1394 16.56C53.3594 16.7 53.5494 16.84 53.7094 16.98C53.8894 17.1 54.0394 17.21 54.1594 17.31C54.5794 17.37 55.1794 17.4 55.9594 17.4ZM51.3394 17.01L51.5494 16.83C50.4294 16.27 49.2394 15.93 47.9794 15.81H47.7694C47.5294 15.81 47.4094 15.84 47.4094 15.9C47.4094 15.94 47.4594 15.99 47.5594 16.05C47.6594 16.11 47.7494 16.16 47.8294 16.2C48.2294 16.34 48.7594 16.49 49.4194 16.65C50.0994 16.79 50.7394 16.91 51.3394 17.01ZM56.4094 20.31C56.4294 20.27 56.4394 20.23 56.4394 20.19C56.4394 20.13 56.4494 20.08 56.4694 20.04C56.5294 19.72 56.5994 19.41 56.6794 19.11C56.7794 18.79 56.8694 18.48 56.9494 18.18C56.5694 18.2 56.2094 18.22 55.8694 18.24C55.5494 18.24 55.2594 18.24 54.9994 18.24C55.2194 18.5 55.4594 18.82 55.7194 19.2C55.9794 19.56 56.2094 19.93 56.4094 20.31ZM68.4927 21V9.64H73.1327C74.1327 9.64 74.9927 9.8 75.7127 10.12C76.4327 10.4267 76.9927 10.88 77.3927 11.48C77.7927 12.0667 77.9927 12.7867 77.9927 13.64C77.9927 14.4667 77.7927 15.18 77.3927 15.78C76.9927 16.38 76.4327 16.84 75.7127 17.16C74.9927 17.4667 74.1327 17.62 73.1327 17.62H69.5727L70.4327 16.74V21H68.4927ZM76.0927 21L73.1327 16.88H75.2327L78.1927 21H76.0927ZM70.4327 16.96L69.6927 16.04H73.0127C73.9994 16.04 74.7461 15.8333 75.2527 15.42C75.7727 15.0067 76.0327 14.4133 76.0327 13.64C76.0327 12.8667 75.7727 12.2733 75.2527 11.86C74.7461 11.4467 73.9994 11.24 73.0127 11.24H69.6927L70.4327 10.32V16.96ZM81.0904 21V9.64H82.7504L87.7304 17.92H86.9704L91.8704 9.64H93.5504L93.5704 21H91.7104L91.6904 12.62H91.9904L87.7704 19.64H86.8704L82.5304 12.62H82.9504V21H81.0904Z" fill="white"/>
</svg>
