<svg width="49" height="48" viewBox="0 0 49 48" fill="none" xmlns="http://www.w3.org/2000/svg">
<path d="M14.0501 38.475L23.5001 32.775L32.9501 38.55L30.4751 27.75L38.8001 20.55L27.8501 19.575L23.5001 9.37504L19.1501 19.5L8.20007 20.475L16.5251 27.75L14.0501 38.475ZM23.5001 36.306L12.6101 42.882C12.2901 43.04 11.9931 43.104 11.7191 43.074C11.4471 43.042 11.1821 42.948 10.9241 42.792C10.6641 42.632 10.4681 42.406 10.3361 42.114C10.2041 41.822 10.1921 41.503 10.3001 41.157L13.1981 28.827L3.61307 20.517C3.34307 20.297 3.16507 20.034 3.07907 19.728C2.99307 19.422 3.01207 19.129 3.13607 18.849C3.26007 18.569 3.42507 18.339 3.63107 18.159C3.83907 17.985 4.11907 17.867 4.47107 17.805L17.1191 16.701L22.0511 5.02504C22.1871 4.69504 22.3831 4.45704 22.6391 4.31104C22.8951 4.16504 23.1821 4.09204 23.5001 4.09204C23.8181 4.09204 24.1061 4.16504 24.3641 4.31104C24.6221 4.45704 24.8171 4.69504 24.9491 5.02504L29.8811 16.701L42.5261 17.805C42.8801 17.865 43.1611 17.984 43.3691 18.162C43.5771 18.338 43.7431 18.567 43.8671 18.849C43.9891 19.129 44.0071 19.422 43.9211 19.728C43.8351 20.034 43.6571 20.297 43.3871 20.517L33.8021 28.827L36.7001 41.157C36.8121 41.499 36.8011 41.817 36.6671 42.111C36.5331 42.405 36.3361 42.631 36.0761 42.789C35.8201 42.949 35.5551 43.044 35.2811 43.074C35.0091 43.104 34.7131 43.04 34.3931 42.882L23.5001 36.306Z" fill="black"/>
</svg>
