<svg width="30" height="30" viewBox="0 0 30 30" fill="none" xmlns="http://www.w3.org/2000/svg">
<g clip-path="url(#clip0_57_6)">
<path d="M6.52999 11.37V8.70799C6.52999 8.17559 6.96559 7.73999 7.49799 7.73999H27.342C27.8744 7.73999 28.31 8.17559 28.31 8.70799V18.872C28.31 19.4044 27.8744 19.84 27.342 19.84H24.68M3.86799 11.37H23.712C23.9687 11.37 24.2149 11.472 24.3965 11.6535C24.578 11.835 24.68 12.0813 24.68 12.338V22.502C24.68 22.7587 24.578 23.0049 24.3965 23.1865C24.2149 23.368 23.9687 23.47 23.712 23.47H3.86799C3.61126 23.47 3.36505 23.368 3.18351 23.1865C3.00198 23.0049 2.89999 22.7587 2.89999 22.502V12.338C2.89999 12.0813 3.00198 11.835 3.18351 11.6535C3.36505 11.472 3.61126 11.37 3.86799 11.37ZM15 17.42C15 17.7409 14.8725 18.0487 14.6456 18.2756C14.4187 18.5025 14.1109 18.63 13.79 18.63C13.4691 18.63 13.1613 18.5025 12.9344 18.2756C12.7075 18.0487 12.58 17.7409 12.58 17.42C12.58 17.0991 12.7075 16.7913 12.9344 16.5644C13.1613 16.3375 13.4691 16.21 13.79 16.21C14.1109 16.21 14.4187 16.3375 14.6456 16.5644C14.8725 16.7913 15 17.0991 15 17.42Z" stroke="black" stroke-width="1.815" stroke-miterlimit="10" stroke-linejoin="round"/>
</g>
<defs>
<clipPath id="clip0_57_6">
<rect width="29.04" height="29.04" fill="white" transform="translate(0.47998 0.47998)"/>
</clipPath>
</defs>
</svg>
