<svg width="28" height="28" viewBox="0 0 28 28" fill="none" xmlns="http://www.w3.org/2000/svg">
<path d="M1.50002 22.0359V6.85589L4.00802 8.86389C5.27402 9.87589 6.84802 10.4279 8.46802 10.4279H14L16.584 5.25989C16.8814 4.66738 17.3375 4.16909 17.9015 3.82055C18.4654 3.47202 19.1151 3.28692 19.778 3.28589H21.142V7.74989L26.5 9.53589V11.3219C26.5 13.2939 24.9 14.8919 22.928 14.8919H19.36V22.0359C19.3698 22.3939 19.3077 22.7502 19.1775 23.0837C19.0473 23.4173 18.8515 23.7214 18.6018 23.9781C18.352 24.2347 18.0534 24.4387 17.7235 24.578C17.3936 24.7173 17.0391 24.7891 16.681 24.7891C16.3229 24.7891 15.9684 24.7173 15.6385 24.578C15.3086 24.4387 15.01 24.2347 14.7603 23.9781C14.5105 23.7214 14.3148 23.4173 14.1845 23.0837C14.0543 22.7502 13.9922 22.3939 14.002 22.0359V21.1419C14.002 20.1559 13.202 19.3579 12.216 19.3579H8.64202C7.65602 19.3579 6.85802 20.1579 6.85802 21.1419V22.0359C6.8678 22.3939 6.80575 22.7502 6.67551 23.0837C6.54528 23.4173 6.34951 23.7214 6.09978 23.9781C5.85004 24.2347 5.5514 24.4387 5.2215 24.578C4.8916 24.7173 4.53713 24.7891 4.17902 24.7891C3.82092 24.7891 3.46645 24.7173 3.13655 24.578C2.80664 24.4387 2.50801 24.2347 2.25827 23.9781C2.00853 23.7214 1.81277 23.4173 1.68253 23.0837C1.5523 22.7502 1.49024 22.3939 1.50002 22.0359Z" stroke="black" stroke-width="2" stroke-linecap="round" stroke-linejoin="round"/>
<path d="M14.024 10.1938C14.374 11.6278 16.024 14.5838 19.814 14.9438" stroke="black" stroke-width="2" stroke-linecap="round" stroke-linejoin="round"/>
</svg>
