<svg width="49" height="48" viewBox="0 0 49 48" fill="none" xmlns="http://www.w3.org/2000/svg">
<path d="M44 40.5H39.5V7.5C39.5 6.70435 39.1839 5.94129 38.6213 5.37868C38.0587 4.81607 37.2957 4.5 36.5 4.5H12.5C11.7044 4.5 10.9413 4.81607 10.3787 5.37868C9.81607 5.94129 9.5 6.70435 9.5 7.5V40.5H5C4.60218 40.5 4.22064 40.658 3.93934 40.9393C3.65804 41.2206 3.5 41.6022 3.5 42C3.5 42.3978 3.65804 42.7794 3.93934 43.0607C4.22064 43.342 4.60218 43.5 5 43.5H44C44.3978 43.5 44.7794 43.342 45.0607 43.0607C45.342 42.7794 45.5 42.3978 45.5 42C45.5 41.6022 45.342 41.2206 45.0607 40.9393C44.7794 40.658 44.3978 40.5 44 40.5ZM12.5 7.5H36.5V40.5H12.5V7.5ZM32 24.75C32 25.195 31.868 25.63 31.6208 26C31.3736 26.37 31.0222 26.6584 30.611 26.8287C30.1999 26.999 29.7475 27.0436 29.311 26.9568C28.8746 26.87 28.4737 26.6557 28.159 26.341C27.8443 26.0263 27.63 25.6254 27.5432 25.189C27.4564 24.7525 27.501 24.3001 27.6713 23.889C27.8416 23.4778 28.13 23.1264 28.5 22.8792C28.87 22.632 29.305 22.5 29.75 22.5C30.3467 22.5 30.919 22.7371 31.341 23.159C31.7629 23.581 32 24.1533 32 24.75Z" fill="black"/>
</svg>
