<svg width="28" height="28" viewBox="0 0 28 28" fill="none" xmlns="http://www.w3.org/2000/svg">
<g clip-path="url(#clip0_8_21)">
<path d="M24.4771 20.4715C26.4444 20.4715 28 22.05 28 23.9441C28 25.8382 26.3987 27.4166 24.4771 27.4166C22.5556 27.4166 20.9542 25.8382 20.9542 23.9441C20.9542 22.05 22.5556 20.4715 24.4771 20.4715ZM25.7582 0.583313C26.2157 0.583313 26.5817 0.944097 26.5817 1.39508C26.5817 1.84606 26.2157 2.20684 25.7582 2.20684C12.4444 2.20684 1.60131 12.85 1.64706 26.0186C1.64706 26.4696 1.28105 26.8304 0.823529 26.8304C0.366013 26.8304 0 26.4696 0 26.0186C0 11.9931 11.5294 0.628411 25.7582 0.583313ZM25.7124 7.93429C26.1699 7.93429 26.5359 8.29508 26.5359 8.74606C26.5359 9.15194 26.2157 9.51273 25.7582 9.51273C16.5163 9.51273 9.01307 16.9088 9.05882 25.9735C9.05882 26.4245 8.69281 26.7853 8.23529 26.7853C7.77778 26.7853 7.41176 26.4245 7.41176 25.9735C7.41176 16.0519 15.6013 7.93429 25.7124 7.93429ZM25.7124 15.1951C26.1699 15.1951 26.5359 15.5559 26.5359 16.0068C26.5359 16.4578 26.2157 16.7735 25.7582 16.7735C20.634 16.7735 16.4248 20.8774 16.4248 25.9735C16.4248 26.4245 16.0588 26.7853 15.6013 26.7853C15.1438 26.7853 14.7778 26.4245 14.7778 25.9735C14.7778 20.0206 19.6732 15.1951 25.7124 15.1951ZM24.4771 22.0951C23.4248 22.0951 22.5556 22.9519 22.5556 23.9892C22.5556 25.0265 23.4248 25.8833 24.4771 25.8833C25.5294 25.8833 26.3987 25.0265 26.3987 23.9892C26.3987 22.9519 25.5294 22.0951 24.4771 22.0951Z" fill="#333333"/>
</g>
<defs>
<clipPath id="clip0_8_21">
<rect width="28" height="28" fill="white"/>
</clipPath>
</defs>
</svg>
